<svg xmlns="http://www.w3.org/2000/svg" viewBox="0 0 512 512"><!--!Font Awesome Free 6.5.1 by @fontawesome - https://fontawesome.com License - https://fontawesome.com/license/free Copyright 2024 Fonticons, Inc.--><path d="M216 260c0 15.5-12.5 28-28 28s-28-12.5-28-28c0-44.1 35.9-80 80-80s80 35.9 80 80c0 15.5-12.5 28-28 28s-28-12.5-28-28c0-13.2-10.8-24-24-24s-24 10.8-24 24zm24-176c-97 0-176 79-176 176 0 15.5 12.5 28 28 28s28-12.5 28-28c0-66.2 53.8-120 120-120s120 53.8 120 120c0 75.2-71 70.3-72 143.6L288 404c0 28.7-23.3 52-52 52-15.5 0-28 12.5-28 28s12.5 28 28 28c59.5 0 107.9-48.3 108-107.8 .6-34.4 72-48.2 72-144.2 0-97-79-176-176-176zm-80 236c-17.7 0-32 14.3-32 32s14.3 32 32 32 32-14.3 32-32-14.3-32-32-32zM32 448c-17.7 0-32 14.3-32 32s14.3 32 32 32 32-14.3 32-32-14.3-32-32-32zm480-188c0-1.5 0-3 0-4.5C510.1 140.5 436.2 38.5 328 1.5c-14.6-5-30.5 2.8-35.6 17.4-5 14.6 2.8 30.5 17.4 35.6 85.9 29.4 144.6 110.5 146.1 202l0 .2c0 1.1 0 2.2 0 3.4 0 15.5 12.5 28 28 28s28-12.5 28-28zM153 439l-80-80L39 393l80 80 33.9-33.9z"/></svg>