<svg xmlns="http://www.w3.org/2000/svg" viewBox="0 0 576 512"><!--!Font Awesome Free 6.5.1 by @fontawesome - https://fontawesome.com License - https://fontawesome.com/license/free Copyright 2024 Fonticons, Inc.--><path d="M304 32H16A16 16 0 0 0 0 48v96a16 16 0 0 0 16 16h32a16 16 0 0 0 16-16v-32h56v304H80a16 16 0 0 0 -16 16v32a16 16 0 0 0 16 16h160a16 16 0 0 0 16-16v-32a16 16 0 0 0 -16-16h-40V112h56v32a16 16 0 0 0 16 16h32a16 16 0 0 0 16-16V48a16 16 0 0 0 -16-16zm256 336h-48V144h48c14.3 0 21.3-17.3 11.3-27.3l-80-80a16 16 0 0 0 -22.6 0l-80 80C379.4 126 384.4 144 400 144h48v224h-48c-14.3 0-21.3 17.3-11.3 27.3l80 80a16 16 0 0 0 22.6 0l80-80C580.6 386 575.6 368 560 368z"/></svg>