<svg xmlns="http://www.w3.org/2000/svg" viewBox="0 0 576 512"><!--!Font Awesome Free 6.5.1 by @fontawesome - https://fontawesome.com License - https://fontawesome.com/license/free Copyright 2024 Fonticons, Inc.--><path d="M298.1 224 448 277.6V496a16 16 0 0 1 -16 16H368a16 16 0 0 1 -16-16V384H192V496a16 16 0 0 1 -16 16H112a16 16 0 0 1 -16-16V282.1C58.8 268.8 32 233.7 32 192a32 32 0 0 1 64 0 32.1 32.1 0 0 0 32 32zM544 112v32a64 64 0 0 1 -64 64H448v35.6L320 197.9V48c0-14.3 17.2-21.4 27.3-11.3L374.6 64h53.6c10.9 0 23.8 7.9 28.6 17.7L464 96h64A16 16 0 0 1 544 112zm-112 0a16 16 0 1 0 -16 16A16 16 0 0 0 432 112z"/></svg>