<svg xmlns="http://www.w3.org/2000/svg" viewBox="0 0 512 512"><!--!Font Awesome Free 6.5.1 by @fontawesome - https://fontawesome.com License - https://fontawesome.com/license/free Copyright 2024 Fonticons, Inc.--><path d="M496.1 385.7l14.2 28.7c3.9 7.9 .7 17.5-7.2 21.4l-65.5 32.9c-16 8-35.6 1.2-43.2-15.1L331.7 320H192c-15.9 0-29.4-11.7-31.7-27.5C126.4 55.3 128.4 70 128 64c0-36.4 30.3-65.6 67.1-63.9 33.3 1.5 60 28.9 60.9 62.2 .9 32.9-23.2 60.4-54.6 65l4.7 32.7H336c8.8 0 16 7.2 16 16v32c0 8.8-7.2 16-16 16H215.2l4.6 32H352a32 32 0 0 1 29 18.4L438.5 396.8l36.2-18.3c7.9-3.9 17.5-.7 21.4 7.2zM311.4 352h-24.5c-7.8 54.2-54.5 96-110.9 96-61.8 0-112-50.2-112-112 0-41.5 22.7-77.8 56.3-97.2-3.7-26-6.8-47.9-9.5-66.3C46 198.5 0 262 0 336c0 97 79 176 176 176 71.9 0 133.8-43.3 161.1-105.2L311.4 352z"/></svg>